# xmcd
#
# Track frame offsets:
#	150
#	12941
#	29735
#	47573
#	63542
#	80898
#	99173
#	110773
#	124603
#	150513
#	168794
#	178298
#	193076
#	205027
#	214489
#
# Disc length: 3101 seconds
#
# Revision: 0
# Processed by: cddbd v1.5.2PL0 Copyright (c) Steve Scherf et al.
# Submitted via: dBpowerAMP V4.0
#
DISCID=d30c1b0f
DTITLE=Samantha King - Samantha King
DYEAR=1900
DGENRE=Country
TTITLE0=This is Forever
TTITLE1=Runaway With You
TTITLE2=It Can't Rain Forever
TTITLE3=Feed A Promise
TTITLE4=Fall
TTITLE5=Someday
TTITLE6=I'm Just So Blue
TTITLE7=The All Overs
TTITLE8=Nobody's Crying
TTITLE9=Made For You
TTITLE10=Jingle Bell Rock
TTITLE11=White Christmas
TTITLE12=I Saw Mommy Kissing Santa Clause
TTITLE13=Rockin' Around The Christmas Tree
TTITLE14=O Holy Night
EXTD=
EXTT0=
EXTT1=
EXTT2=
EXTT3=
EXTT4=
EXTT5=
EXTT6=
EXTT7=
EXTT8=
EXTT9=
EXTT10=
EXTT11=
EXTT12=
EXTT13=
EXTT14=
PLAYORDER=
